<svg xmlns="http://www.w3.org/2000/svg" xmlns:xlink="http://www.w3.org/1999/xlink" id="Слой_1" data-name="Слой 1" viewBox="0 0 1200 630"><defs><style>.cls-1,.cls-12,.cls-14,.cls-28,.cls-29,.cls-30,.cls-6,.cls-7,.cls-8{fill:none}.cls-2{fill:#003dff}.cls-3{fill:url(#Безымянный_градиент_2)}.cls-4{fill:url(#Безымянный_градиент_61)}.cls-5{clip-path:url(#clip-path)}.cls-6{stroke:#c9ddff}.cls-12,.cls-14,.cls-6,.cls-7,.cls-8{stroke-linecap:round;stroke-width:5.01px}.cls-6,.cls-7{stroke-miterlimit:10}.cls-7{stroke:#9ac4f8}.cls-12,.cls-14,.cls-30,.cls-8{stroke-linejoin:round}.cls-8{stroke:url(#Безымянный_градиент_47)}.cls-9{fill:url(#Безымянный_градиент_48)}.cls-10{fill:url(#Безымянный_градиент_49)}.cls-11{fill:url(#Безымянный_градиент_50)}.cls-12{stroke:url(#Безымянный_градиент_53)}.cls-13{fill:url(#Безымянный_градиент_53-2)}.cls-14{stroke:url(#Безымянный_градиент_53-3)}.cls-15{fill:url(#Безымянный_градиент_63)}.cls-16{fill:#5dfdcb}.cls-17{fill:url(#Безымянный_градиент_55)}.cls-18{fill:url(#Безымянный_градиент_63-2)}.cls-19{fill:url(#Безымянный_градиент_61-2)}.cls-20{fill:url(#Безымянный_градиент_63-3)}.cls-21{fill:#151e3f}.cls-22{fill:url(#Безымянный_градиент_61-3)}.cls-23{fill:url(#Безымянный_градиент_61-4)}.cls-24{fill:url(#Безымянный_градиент_61-5)}.cls-25{fill:url(#Безымянный_градиент_63-4)}.cls-26{fill:url(#Безымянный_градиент_63-5)}.cls-27{opacity:.3}.cls-28{stroke:#5dfdcb}.cls-28,.cls-29{stroke-linejoin:bevel}.cls-28,.cls-29,.cls-30{stroke-width:12.52px}.cls-29,.cls-30{stroke:#fff}.cls-31{fill:#fff}</style><linearGradient id="Безымянный_градиент_2" x1="600" x2="600" y1="-13.11" y2="478.16" gradientTransform="matrix(1, 0, 0, -1, 0, 632)" gradientUnits="userSpaceOnUse"><stop offset="0" stop-color="#5dfdcb"/><stop offset="1" stop-color="#003dff"/></linearGradient><linearGradient id="Безымянный_градиент_61" x1="96.22" x2="587.58" y1="108.46" y2="108.46" gradientTransform="translate(0 226)" gradientUnits="userSpaceOnUse"><stop offset="0" stop-color="#c9ddff"/><stop offset="1" stop-color="#fff"/></linearGradient><clipPath id="clip-path"><path d="M577.86,307.26C597,357.33,588.64,407.41,546,451.09c-41.24,43.06-116.33,80.29-204.13,80-87.81.32-162.89-36.91-204.13-80-42.62-43.68-51-93.76-31.84-143.83,19.31-50.33,55.53-92.39,95.77-122.22,40.86-29.77,88.18-47.19,140.26-47.25s99.4,17.48,140.26,47.25C522.33,214.94,558.56,256.93,577.86,307.26Z" class="cls-1"/></clipPath><linearGradient id="Безымянный_градиент_47" x1="341.84" x2="341.84" y1="69.28" y2="-90.72" gradientTransform="translate(0 226)" gradientUnits="userSpaceOnUse"><stop offset="0" stop-color="#c9ddff"/><stop offset="1" stop-color="#9ac4f8"/></linearGradient><linearGradient id="Безымянный_градиент_48" x1="559.94" x2="559.94" y1="70.85" y2="23.66" gradientTransform="translate(0 226)" gradientUnits="userSpaceOnUse"><stop offset="0" stop-color="#c9ddff" stop-opacity="0"/><stop offset="1" stop-color="#c9ddff"/></linearGradient><linearGradient id="Безымянный_градиент_49" x1="186.06" x2="337.29" y1="273.51" y2="122.27" gradientTransform="translate(0 226)" gradientUnits="userSpaceOnUse"><stop offset="0" stop-color="#9ac4f8" stop-opacity="0"/><stop offset="1" stop-color="#9ac4f8"/></linearGradient><radialGradient id="Безымянный_градиент_50" cx="341.83" cy="247.59" r="69.99" gradientTransform="translate(0 226)" gradientUnits="userSpaceOnUse"><stop offset=".2" stop-color="#9ac4f8"/><stop offset=".8" stop-color="#9ac4f8" stop-opacity="0"/></radialGradient><linearGradient id="Безымянный_градиент_53" x1="197.87" x2="485.8" y1="-15.92" y2="-15.92" gradientTransform="translate(0 226)" gradientUnits="userSpaceOnUse"><stop offset="0" stop-color="#9ac4f8"/><stop offset="1" stop-color="#c9ddff"/></linearGradient><linearGradient id="Безымянный_градиент_53-2" x1="140.38" x2="543.34" y1="160.1" y2="160.1" xlink:href="#Безымянный_градиент_53"/><linearGradient id="Безымянный_градиент_53-3" x1="152.13" x2="531.54" y1="159.85" y2="159.85" xlink:href="#Безымянный_градиент_53"/><linearGradient id="Безымянный_градиент_63" x1="341.84" x2="341.84" y1="1616.62" y2="1455.55" gradientTransform="matrix(1, 0, 0, -1, 0, 1921.93)" gradientUnits="userSpaceOnUse"><stop offset="0" stop-color="#02111b"/><stop offset="1" stop-color="#151e3f"/></linearGradient><linearGradient id="Безымянный_градиент_55" x1="311.36" x2="311.36" y1="363.4" y2="69.46" gradientTransform="translate(0 226)" gradientUnits="userSpaceOnUse"><stop offset=".6" stop-color="#003dff" stop-opacity="0"/><stop offset="1" stop-color="#003dff" stop-opacity=".3"/></linearGradient><linearGradient id="Безымянный_градиент_63-2" x1="341.9" x2="341.9" y1="240.38" y2="128.89" gradientTransform="translate(0 226)" xlink:href="#Безымянный_градиент_63"/><linearGradient id="Безымянный_градиент_61-2" x1="285.96" x2="397.81" y1="247.62" y2="247.62" xlink:href="#Безымянный_градиент_61"/><linearGradient id="Безымянный_градиент_63-3" x1="306.85" x2="376.73" y1="240.41" y2="240.41" gradientTransform="translate(0 226)" xlink:href="#Безымянный_градиент_63"/><linearGradient id="Безымянный_градиент_61-3" x1="124.31" x2="297.54" y1="-26.38" y2="-26.38" xlink:href="#Безымянный_градиент_61"/><linearGradient id="Безымянный_градиент_61-4" x1="210.92" x2="210.92" y1="74.23" y2="-127" xlink:href="#Безымянный_градиент_61"/><linearGradient id="Безымянный_градиент_61-5" x1="384.41" x2="559.99" y1="-26.61" y2="-26.61" xlink:href="#Безымянный_градиент_61"/><linearGradient id="Безымянный_градиент_63-4" x1="471.58" x2="471.58" y1="14.92" y2="-89.82" gradientTransform="translate(0 226)" xlink:href="#Безымянный_градиент_63"/><linearGradient id="Безымянный_градиент_63-5" x1="-10026.86" x2="-10026.86" y1="15.17" y2="-89.57" gradientTransform="matrix(-1, 0, 0, 1, -9815.4, 226)" xlink:href="#Безымянный_градиент_63"/></defs><title>1Proof-of-Skill-FB</title><rect width="1276.04" height="650.52" x="-14.87" y="-11" class="cls-2"/><path d="M1255,405.89c-48.92-35.12-109.31-42.11-147.21-77-37.9-33.69-55.1-96.5-105.28-123.82C962.68,183.43,903.64,199.19,842,189c-59.22-8.78-106.8-42-146.4-33.87-53.76,11-81.89,66.57-122.39,88.79-40.5,23.21-95.87,13.71-149.54,33.06-39.6,14.25-77.5,61-136.81,69.8-56.17,9.32-102.94-23.65-140.57-25C90.65,319.7,45,344.16,4.46,333.14c-40.23-9.95-78.58-54.56-132-48v360h1455V483.21C1300.46,455.71,1280.3,424.08,1255,405.89Z" class="cls-3"/><path d="M577.86,307.26C597,357.33,588.64,407.41,546,451.09c-41.24,43.06-116.33,80.29-204.13,80-87.81.32-162.89-36.91-204.13-80-42.62-43.68-51-93.76-31.84-143.83,19.31-50.33,55.53-92.39,95.77-122.22,40.86-29.77,88.18-47.19,140.26-47.25s99.4,17.48,140.26,47.25C522.33,214.94,558.56,256.93,577.86,307.26Z" class="cls-4"/><g class="cls-5"><path d="M529,358c16.86-2.82,36.41-11.16,56.22-25.07" class="cls-6"/><path d="M154.69,358c-16.86-2.82-36.41-11.16-56.15-25.07" class="cls-7"/><line x1="341.84" x2="341.84" y1="292.78" y2="137.79" class="cls-8"/><line x1="341.84" x2="341.84" y1="478.98" y2="531.12" class="cls-7"/></g><path d="M573.54,296.85a256.76,256.76,0,0,0-27.2-47.19v47.19Z" class="cls-9"/><path d="M354.37,524.86c-87.81.31-162.89-36.92-204.13-80C107.63,401.14,99.29,351.06,118.4,301a247.11,247.11,0,0,1,13.67-29.46c-.06-.37-.13-.69-.19-1.06a113.9,113.9,0,0,1-1.07-11.35,248.58,248.58,0,0,0-24.94,48.14c-19.12,50.07-10.78,100.15,31.84,143.83,41.24,43.06,116.32,80.29,204.13,80,54.27.19,103.72-14,143.27-35A306.07,306.07,0,0,1,354.37,524.86Z" class="cls-10"/><path d="M341.52,530.44c-24.19,0-47.63-9.28-62.73-24.76-16.42-16.67-22.13-38.8-14.92-57.85,5.58-15.1,21.43-31.08,49.32-31.08,1.26,0,2.51,0,3.76.12l5.83.19c5.27.19,11.22.44,17.74.44h2.63c6.52,0,12.54-.25,17.8-.44,2.07-.06,3.95-.19,5.83-.19,1.25-.06,2.51-.12,3.76-.12,13.1,0,24.88,3.69,34,10.59a46.28,46.28,0,0,1,15.29,20.49c7.21,19.05,1.51,41.18-15,57.85-15,15.48-38.48,24.76-62.67,24.76Z" class="cls-11"/><path d="M200.38,186c.38.32.82.63,1.19.94,40.87,29.77,88.18,47.2,140.27,47.26s99.4-17.49,140.26-47.26c.37-.31.81-.62,1.19-.94" class="cls-12"/><path d="M341.9,494h-.06a2.52,2.52,0,0,1-2.51-2.51h0a2.52,2.52,0,0,1,2.51-2.5H342a2.52,2.52,0,0,1,2.51,2.5h0A2.52,2.52,0,0,1,342,494h-.06Zm-32-1.06a2.49,2.49,0,0,1-2.31-2.7h0a2.51,2.51,0,0,1,2.69-2.32h0a2.49,2.49,0,0,1,2.32,2.7h0a2.48,2.48,0,0,1-2.51,2.32h-.19Zm61.3-2.32a2.57,2.57,0,0,1,2.32-2.7h0a2.56,2.56,0,0,1,2.69,2.32h0a2.52,2.52,0,0,1-2.32,2.7h-.18A2.48,2.48,0,0,1,371.23,490.64Zm-93.07-1.19a2.47,2.47,0,0,1-2.07-2.89h0A2.45,2.45,0,0,1,279,484.5h0a2.45,2.45,0,0,1,2.07,2.88h0a2.5,2.5,0,0,1-2.5,2.13h0A.86.86,0,0,0,278.16,489.45Zm124.66-2.13a2.59,2.59,0,0,1,2.07-2.89h0a2.49,2.49,0,0,1,2.88,2.07h0a2.53,2.53,0,0,1-2.07,2.88h0c-.13,0-.25.07-.38.07h0A2.49,2.49,0,0,1,402.82,487.32Zm-155.93-4.58h0a2.51,2.51,0,0,1-1.76-3.07h0a2.53,2.53,0,0,1,3.07-1.76h0A2.53,2.53,0,0,1,250,481h0a2.5,2.5,0,0,1-2.45,1.81h0A2.14,2.14,0,0,1,246.89,482.74Zm187-1.75a2.48,2.48,0,0,1,1.76-3.08h0a2.48,2.48,0,0,1,3.07,1.76h0a2.47,2.47,0,0,1-1.76,3.07h0a2.65,2.65,0,0,1-.69.06h0A2.55,2.55,0,0,1,433.9,481Zm-217.22-9.28a2.44,2.44,0,0,1-1.19-3.32h0a2.44,2.44,0,0,1,3.32-1.19h0a2.45,2.45,0,0,1,1.19,3.32h0a2.56,2.56,0,0,1-2.26,1.44h0A2.17,2.17,0,0,1,216.68,471.71Zm247.12-1.25a2.51,2.51,0,0,1,1.19-3.33h0a2.5,2.5,0,0,1,3.32,1.2h0a2.51,2.51,0,0,1-1.19,3.32h0a3.05,3.05,0,0,1-1.07.25h0A2.56,2.56,0,0,1,463.8,470.46ZM189,455.1a2.51,2.51,0,0,1-.5-3.51h0a2.51,2.51,0,0,1,3.51-.5h0a2.52,2.52,0,0,1,.5,3.51h0a2.61,2.61,0,0,1-2,1h0A2.37,2.37,0,0,1,189,455.1Zm302.21-.5a2.49,2.49,0,0,1,.5-3.51h0a2.5,2.5,0,0,1,3.51.5h0a2.5,2.5,0,0,1-.5,3.51h0a2.27,2.27,0,0,1-1.51.5h0A2.8,2.8,0,0,1,491.25,454.6ZM166,432.54a2.5,2.5,0,0,1,.38-3.51h0a2.49,2.49,0,0,1,3.51.38h0a2.49,2.49,0,0,1-.38,3.51h0a2.41,2.41,0,0,1-1.56.56h0A2.54,2.54,0,0,1,166,432.54Zm348.34.31a2.49,2.49,0,0,1-.37-3.51h0a2.49,2.49,0,0,1,3.51-.37h0a2.49,2.49,0,0,1,.37,3.51h0a2.53,2.53,0,0,1-1.94.94h0A2.41,2.41,0,0,1,514.31,432.85ZM149.18,405h0a2.52,2.52,0,0,1,1.25-3.32h0a2.53,2.53,0,0,1,3.32,1.25h0a2.53,2.53,0,0,1-1.25,3.33h0a2.94,2.94,0,0,1-1,.18h0A2.36,2.36,0,0,1,149.18,405Zm382.12,1.19a2.52,2.52,0,0,1-1.26-3.32h0a2.51,2.51,0,0,1,3.33-1.25h0a2.51,2.51,0,0,1,1.25,3.32h0a2.53,2.53,0,0,1-2.32,1.5h0A4.18,4.18,0,0,1,531.3,406.15ZM140.4,373.81a2.55,2.55,0,0,1,2.2-2.82h0a2.54,2.54,0,0,1,2.82,2.2h0a2.53,2.53,0,0,1-2.2,2.82h-.31A2.56,2.56,0,0,1,140.4,373.81Zm400.11,2.07a2.53,2.53,0,0,1-2.19-2.82h0a2.52,2.52,0,0,1,2.82-2.19h0a2.57,2.57,0,0,1,2.19,2.82h0a2.56,2.56,0,0,1-2.51,2.19h-.31ZM143.66,344.36a2.48,2.48,0,0,1-1.82-3h0a2.47,2.47,0,0,1,3-1.82h0a2.46,2.46,0,0,1,1.82,3h0a2.59,2.59,0,0,1-2.44,1.94h0A4.48,4.48,0,0,0,143.66,344.36Zm393.28-1.88h0a2.57,2.57,0,0,1,1.82-3.07h0a2.58,2.58,0,0,1,3.07,1.81h0a2.52,2.52,0,0,1-1.82,3h0a1.94,1.94,0,0,1-.63.07h0A2.41,2.41,0,0,1,536.94,342.48ZM157.2,316a2.57,2.57,0,0,1-.19-3.58h0a2.49,2.49,0,0,1,3.51-.18h0a2.49,2.49,0,0,1,.19,3.51h0a2.48,2.48,0,0,1-1.88.81h0A2,2,0,0,1,157.2,316ZM523,315.72h0a2.48,2.48,0,0,1,.19-3.51h0a2.56,2.56,0,0,1,3.57.18h0a2.47,2.47,0,0,1-.19,3.51h0a2.45,2.45,0,0,1-1.69.63h0A2.31,2.31,0,0,1,523,315.72ZM182.33,297a2.5,2.5,0,0,1,1.32-3.32h0A2.5,2.5,0,0,1,187,295h0a2.5,2.5,0,0,1-1.32,3.32h0a2.73,2.73,0,0,1-1,.19h0A2.47,2.47,0,0,1,182.33,297ZM498,298.23a2.58,2.58,0,0,1-1.32-3.32h0a2.54,2.54,0,0,1,3.32-1.32h0a2.53,2.53,0,0,1,1.32,3.32h0a2.54,2.54,0,0,1-2.32,1.51h0A2.73,2.73,0,0,1,498,298.23ZM212.67,287.89a2.49,2.49,0,0,1,2.06-2.88h0a2.54,2.54,0,0,1,2.89,2.06h0a2.55,2.55,0,0,1-2.07,2.89h-.38A2.39,2.39,0,0,1,212.67,287.89ZM468.12,290a2.47,2.47,0,0,1-2.07-2.89h0a2.47,2.47,0,0,1,2.89-2.06h0a2.45,2.45,0,0,1,2.07,2.88h0A2.51,2.51,0,0,1,468.5,290h0C468.37,290,468.25,290,468.12,290Zm-223.93-5.83a2.48,2.48,0,0,1,2.26-2.7h0a2.47,2.47,0,0,1,2.69,2.26h0a2.46,2.46,0,0,1-2.25,2.69h-.26A2.45,2.45,0,0,1,244.19,284.13Zm192.53,2.25a2.56,2.56,0,0,1-2.32-2.69h0a2.48,2.48,0,0,1,2.7-2.26h0a2.48,2.48,0,0,1,2.26,2.7h0a2.54,2.54,0,0,1-2.51,2.32h0C436.91,286.38,436.85,286.38,436.72,286.38Zm-160.88-4.44a2.53,2.53,0,0,1,2.38-2.64h0a2.52,2.52,0,0,1,2.63,2.38h0a2.52,2.52,0,0,1-2.38,2.64h-.12A2.54,2.54,0,0,1,275.84,281.94Zm129.3,2.38a2.54,2.54,0,0,1-2.39-2.64h0a2.54,2.54,0,0,1,2.64-2.38h0a2.53,2.53,0,0,1,2.38,2.64h0a2.54,2.54,0,0,1-2.51,2.38h-.12Zm-97.59-3.58a2.57,2.57,0,0,1,2.45-2.57h0a2.52,2.52,0,0,1,2.57,2.45h0a2.52,2.52,0,0,1-2.45,2.57h-.06A2.51,2.51,0,0,1,307.55,280.74Zm65.94,2.45a2.52,2.52,0,0,1-2.45-2.57h0a2.48,2.48,0,0,1,2.57-2.45h0a2.49,2.49,0,0,1,2.45,2.57h0a2.48,2.48,0,0,1-2.57,2.45Z" class="cls-13"/><path d="M341.84,479c-59-.13-104.29-10.09-134.69-29.64C174,428.65,153.38,392.8,154.69,358c.63-17.93,7.65-32.15,20.81-42.31,11-8.46,26.07-13.85,46-16.48,30-4.07,69.38-6.2,120.27-6.46h.13c50.89.26,90.25,2.39,120.27,6.46,20,2.57,35,8,46,16.48C521.33,325.81,528.35,340,529,358c1.25,34.78-19.31,70.63-52.46,91.31-30.33,19.62-75.65,29.58-134.68,29.71Z" class="cls-14"/><path d="M516.51,358.46c-1.07-29.46-22.75-42.49-56-46.82-33.34-4.51-75.21-6.14-118.7-6.33-43.5.19-85.37,1.82-118.71,6.33-33.21,4.33-54.9,17.3-56,46.82-1.06,29.08,16.3,61.36,46.63,80.28,30.34,19.56,76,27.58,128,27.64s97.65-8.08,128-27.64C500.21,419.82,517.57,387.54,516.51,358.46Z" class="cls-15"/><rect width="12.53" height="12.53" x="297.96" y="411.29" class="cls-16"/><rect width="12.53" height="12.53" x="285.43" y="398.76" class="cls-16"/><rect width="25.07" height="12.53" x="260.36" y="386.22" class="cls-16"/><rect width="25.07" height="12.53" x="235.29" y="373.69" class="cls-16"/><rect width="12.53" height="12.53" x="222.76" y="386.22" class="cls-16"/><rect width="12.53" height="12.53" x="247.83" y="336.08" class="cls-16"/><rect width="12.53" height="12.53" x="210.22" y="398.76" class="cls-16"/><rect width="12.53" height="12.53" x="373.17" y="411.29" class="cls-16"/><rect width="12.53" height="12.53" x="385.71" y="398.76" class="cls-16"/><rect width="25.07" height="12.53" x="398.24" y="386.22" class="cls-16"/><rect width="25.07" height="12.53" x="423.31" y="373.69" class="cls-16"/><rect width="12.53" height="12.53" x="448.38" y="386.22" class="cls-16"/><rect width="12.53" height="12.53" x="423.31" y="336.08" class="cls-16"/><rect width="12.53" height="12.53" x="460.91" y="398.76" class="cls-16"/><path d="M306.43,448.71c8.58-7.9,17-17.61,23.69-25.45,2.75-3.26,5.39-6.33,7.7-8.83,5.39-6,10.66-11.91,16.24-18.24,18.23-20.81,37.1-42.37,60.16-59,3.39-2.44,6.46-4.51,9.47-6.39L455.59,311c-32.47-4.08-72.39-5.52-113.75-5.71-14.8.06-29.34.32-43.5.75-.69,0-1.38.07-2.07.07-26.7.87-51.7,2.57-73.14,5.51-16.54,2.13-30.27,6.46-40,13.92a40.82,40.82,0,0,0-13.1,18,53.06,53.06,0,0,0-2.7,22.88c1.19,14.73,7.34,31,16.61,44.18l1.38,1.95c.06.06.06.12.13.18,1.19,1.63,2.44,3.2,3.76,4.77.06.06.12.12.12.19.44.56.94,1.06,1.44,1.63s.75.81,1.13,1.25c.06.06.13.19.25.25,19.56,21,49.58,34.85,89.37,41.24l1.38.19c.63.12,1.26.18,1.88.31l3-1.13C293,459.61,299.28,455.29,306.43,448.71Z" class="cls-17"/><path d="M516.26,354.89c-2.39,26.57-19.12,54.33-46.38,71.32-30.34,19.55-76,27.58-128,27.64s-97.65-8.09-128-27.64c-27.26-17-44.06-44.81-46.38-71.32-.12,1.19-.19,2.38-.25,3.57-1.07,29.08,16.3,61.36,46.63,80.28,30.33,19.56,76,27.58,128,27.64s97.64-8.08,128-27.64c30.39-18.92,47.75-51.2,46.63-80.28C516.44,357.27,516.38,356.08,516.26,354.89Z" class="cls-18"/><path d="M341.84,505.37c-18,.06-35.16-7-45.07-17.24-10.21-10.34-12.84-22.5-9.33-31.52,1.94-5.39,8.89-15.8,28.51-14.73,7,.19,15.61.75,25.89.69H342c10.28.06,18.93-.44,25.89-.69,19.61-1.07,26.57,9.34,28.51,14.79,3.45,9,.88,21.18-9.4,31.59-9.9,10.21-27.07,17.23-45,17.17A.19.19,0,0,0,341.84,505.37Z" class="cls-19"/><path d="M376.81,458.17c-.19-5.83-4.58-8.33-11.22-9.27a205.15,205.15,0,0,0-47.51,0c-6.64.94-11,3.44-11.22,9.27s3.33,12.73,9.47,18.05a40.33,40.33,0,0,0,51,0C373.49,470.9,377,463.94,376.81,458.17Z" class="cls-20"/><path d="M364.71,455.16c-9-1.25-16.67,4.77-5.83,10.72C367.91,470.83,376.06,456.73,364.71,455.16Z" class="cls-21"/><path d="M185.4,265.08c19.43-25,43.69-46.88,71.14-62.8,13.91-8.09,37.22-12.35,40.36-26.39,4.2-18.61-13-49.64-26.26-61.67-21.25-19.36-51.9-18.61-76.78-6.89C147.3,129.26,126.74,184,124.8,232.42c-.69,16.8-3.39,60.42,17.67,67.06C160.21,305.19,176.25,276.8,185.4,265.08Z" class="cls-22"/><path d="M185.4,265.08c19.43-25,43.69-46.88,71.14-62.8,13.91-8.09,37.22-12.35,40.36-26.39,4.2-18.61-13-49.64-26.26-61.67-21.25-19.36-51.9-18.61-76.78-6.89C147.3,129.26,126.74,184,124.8,232.42c-.69,16.8-3.39,60.42,17.67,67.06C160.21,305.19,176.25,276.8,185.4,265.08Z" class="cls-23"/><path d="M557.49,214c-6.33-47-33.46-99.47-82.72-112.5-27.39-7.27-54.78.5-71.26,24.07-6.84,9.71-24.7,45.18-17.36,57.15,6.64,10.91,45.12,21.56,56.09,29.15,22.87,15.79,42.11,35.59,59.35,57.34,10,12.66,26.13,39.8,44.75,27.64C565.45,284.32,559.56,231.17,557.49,214Z" class="cls-24"/><path d="M499.27,233c26.14,26.26,21-19.93,17-33.91-7.53-26.2-32.78-70-66.38-61.92-13.72,3.32-30.27,26.13-25.38,41.18,2.45,7.58,24.32,14.41,32.28,19.68A264.39,264.39,0,0,1,499.27,233Z" class="cls-25"/><path d="M459.16,185c-4.14-2.69-25.45-12.6-35-17.48a21.48,21.48,0,0,0,.37,10.78c2.45,7.58,24.32,14.41,32.28,19.68a263.74,263.74,0,0,1,42.55,35c12.41,12.53,17.8,8.58,19.56-.5A435.22,435.22,0,0,0,459.16,185Z" class="cls-21"/><path d="M183.77,233.24c-26.13,26.26-21-19.93-17-33.91,7.52-26.2,32.78-70,66.37-61.92,13.73,3.32,30.27,26.14,25.38,41.18-2.44,7.58-24.31,14.41-32.27,19.68A266,266,0,0,0,183.77,233.24Z" class="cls-26"/><path d="M224,185.29c4.13-2.69,25.44-12.59,35-17.48a21.59,21.59,0,0,1-.37,10.78c-2.45,7.58-24.32,14.41-32.28,19.68a263.82,263.82,0,0,0-42.56,35c-12.41,12.53-17.8,8.58-19.55-.5A426.6,426.6,0,0,1,224,185.29Z" class="cls-21"/><g class="cls-27"><path d="M502.53,349.56c.69,4.07-9.21,5.39-12.35,8.46s-4.51,13.79-10,13.73-6.83-10.66-10-13.73-13-4.39-12.34-8.46,11.09-2.7,14.22-5.08,3.95-12.78,8.09-12.78,4.95,10.4,8.08,12.78S501.84,345.42,502.53,349.56Z" class="cls-2"/></g><line x1="1099.06" x2="1149.16" y1="264.91" y2="264.91" class="cls-28"/><line x1="973.83" x2="923.74" y1="264.91" y2="264.91" class="cls-28"/><path d="M942.52,352.57a18.79,18.79,0,1,0-18.78,18.79,18.79,18.79,0,0,1,0,37.57" class="cls-29"/><polyline points="1005.14 371.36 1005.14 352.57 967.57 371.36 1030.18 396.4 1030.18 346.31" class="cls-29"/><circle cx="654.48" cy="239.86" r="18.79" class="cls-29"/><circle cx="779.7" cy="258.68" r="18.79" class="cls-29"/><circle cx="836.07" cy="258.64" r="18.79" class="cls-29"/><circle cx="1011.4" cy="258.64" r="18.79" class="cls-29"/><path d="M1105.33,258.64V239.86a12.53,12.53,0,0,0-25,0,12.53,12.53,0,0,1-25,0" class="cls-29"/><line x1="635.69" x2="635.69" y1="239.86" y2="308.74" class="cls-29"/><line x1="898.69" x2="861.12" y1="277.43" y2="277.43" class="cls-29"/><line x1="1074.02" x2="1036.45" y1="277.43" y2="277.43" class="cls-29"/><line x1="1055.23" x2="1055.23" y1="221.07" y2="308.74" class="cls-29"/><path d="M930,258.64V239.86a12.53,12.53,0,0,0-25,0,12.53,12.53,0,0,1-25.05,0" class="cls-29"/><line x1="879.9" x2="879.9" y1="221.07" y2="308.74" class="cls-29"/><line x1="967.57" x2="967.57" y1="321.26" y2="396.4" class="cls-29"/><path d="M1111.59,321.26v59.49a9.39,9.39,0,0,0,14.59,7.83l23-15.31" class="cls-30"/><path d="M1055.23,321.26v59.49a9.39,9.39,0,0,0,14.59,7.83l23-15.31" class="cls-30"/><line x1="704.57" x2="685.79" y1="239.86" y2="239.86" class="cls-29"/><rect width="12.52" height="12.52" x="1023.92" y="321.26" class="cls-31"/><line x1="704.57" x2="704.57" y1="277.43" y2="233.6" class="cls-29"/><line x1="723.36" x2="685.79" y1="277.43" y2="277.43" class="cls-29"/><polyline points="742.14 258.64 742.14 239.86 704.57 258.64" class="cls-29"/><path d="M98.06,156.54c.73,4.31-9.74,5.7-13.06,9S80.23,180.07,74.47,180s-7.23-11.26-10.54-14.51-13.78-4.64-13-9,11.73-2.85,15-5.36,4.17-13.52,8.55-13.52,5.23,11,8.54,13.52S97.33,152.24,98.06,156.54Z" class="cls-31"/></svg>